<svg width="220" height="166" viewBox="0 0 220 166" fill="none" xmlns="http://www.w3.org/2000/svg">
<path d="M33.1453 69C49.5613 69 57.0493 60.84 57.0493 49.32C57.0493 41.928 53.9773 35.688 44.7612 33C50.0413 30.024 53.3053 24.936 53.3053 18.504C53.3053 7.752 46.2013 0.0719948 33.0493 0.0719948H2.13725C1.27325 0.0719948 0.88925 0.455996 0.88925 1.224V6.12C0.88925 6.888 1.36925 7.272 2.13725 7.272H9.43325V61.8H2.13725C1.27325 61.8 0.88925 62.184 0.88925 62.952V67.848C0.88925 68.616 1.36925 69 2.13725 69H33.1453ZM17.7853 61.8V36.648H33.0493C42.9373 36.648 48.6013 40.584 48.6013 48.648C48.6013 57.96 42.0733 61.8 32.4733 61.8H17.7853ZM17.7853 30.312V7.272H31.4173C37.8493 7.272 44.8573 9.768 44.8573 19.176C44.8573 27.144 38.3293 30.216 32.4733 30.312H17.7853ZM89.177 69.672C102.905 69.672 113.081 60.168 113.081 45.192C113.081 30.216 102.617 21.096 89.273 21.096C75.929 21.096 65.273 30.024 65.273 45.192C65.273 60.264 75.545 69.672 89.177 69.672ZM89.177 62.952C80.633 62.952 73.337 56.136 73.337 45.288C73.337 34.344 80.921 27.816 89.273 27.816C97.529 27.816 105.113 34.344 105.113 45.288C105.113 56.136 97.817 62.952 89.177 62.952ZM138.118 75.048C135.622 81.864 133.414 84.648 128.518 84.648C125.542 84.648 123.91 83.208 123.43 82.824C122.758 82.344 122.278 82.44 121.702 82.92L119.302 85.992C118.822 86.568 119.014 87.144 119.59 87.72C120.454 88.488 123.622 91.464 129.286 91.464C138.406 91.464 141.862 85.32 145.606 75.144L162.694 28.2H168.07C168.838 28.2 169.222 27.816 169.222 27.048V22.92C169.222 22.152 168.838 21.768 168.07 21.768H150.214C149.446 21.768 149.062 22.152 149.062 22.92V27.048C149.062 27.816 149.446 28.2 150.214 28.2H154.534L143.014 60.744H142.822L130.438 28.2H134.374C135.142 28.2 135.622 27.816 135.622 27.048V22.92C135.622 22.152 135.142 21.768 134.374 21.768H116.998C116.23 21.768 115.846 22.152 115.846 22.92V27.048C115.846 27.816 116.326 28.2 116.998 28.2H122.278L136.966 65.544C137.638 67.272 138.214 67.944 139.462 67.944H140.71L138.118 75.048ZM196.052 69.672C209.78 69.672 219.956 60.168 219.956 45.192C219.956 30.216 209.492 21.096 196.148 21.096C182.804 21.096 172.148 30.024 172.148 45.192C172.148 60.264 182.42 69.672 196.052 69.672ZM196.052 62.952C187.508 62.952 180.212 56.136 180.212 45.288C180.212 34.344 187.796 27.816 196.148 27.816C204.404 27.816 211.988 34.344 211.988 45.288C211.988 56.136 204.692 62.952 196.052 62.952ZM42.9661 165C43.7341 165 44.3101 164.52 44.3101 163.752V159.048C44.3101 158.28 43.7341 157.8 42.9661 157.8H36.2461V103.272H54.1981V113.448C54.1981 114.216 54.6781 114.792 55.4461 114.792H60.9181C61.6861 114.792 62.2621 114.216 62.2621 113.448V97.32C62.2621 96.552 61.6861 96.072 60.9181 96.072H3.03013C2.26213 96.072 1.68613 96.552 1.68613 97.32V113.448C1.68613 114.216 2.26213 114.792 3.03013 114.792H8.40613C9.17413 114.792 9.75012 114.216 9.75012 113.448V103.272H27.8941V157.8H20.5981C19.8301 157.8 19.3501 158.28 19.3501 159.048V163.752C19.3501 164.52 19.8301 165 20.5981 165H42.9661ZM83.3176 165.672C97.0456 165.672 107.222 156.168 107.222 141.192C107.222 126.216 96.7576 117.096 83.4136 117.096C70.0696 117.096 59.4136 126.024 59.4136 141.192C59.4136 156.264 69.6856 165.672 83.3176 165.672ZM83.3176 158.952C74.7736 158.952 67.4776 152.136 67.4776 141.288C67.4776 130.344 75.0616 123.816 83.4136 123.816C91.6696 123.816 99.2536 130.344 99.2536 141.288C99.2536 152.136 91.9576 158.952 83.3176 158.952ZM164.468 165C165.14 165 165.62 164.616 165.62 163.848V159.72C165.62 158.952 165.236 158.568 164.468 158.568H159.092V97.224C159.092 96.456 158.708 96.072 157.94 96.072H146.036C145.268 96.072 144.788 96.456 144.788 97.224V101.352C144.788 102.12 145.268 102.504 146.036 102.504H151.412V123.336C151.412 124.584 151.508 126.504 151.508 126.504H151.412C149.396 121.896 144.404 117.096 135.86 117.096C122.804 117.096 114.164 126.984 114.164 141.096C114.164 156.072 122.996 165.672 135.764 165.672C144.5 165.672 149.972 160.296 151.796 155.592H151.892V160.968C151.892 163.944 153.236 165 156.116 165H164.468ZM136.916 158.952C128.276 158.952 122.036 151.848 122.036 141.192C122.036 130.344 128.66 123.816 136.916 123.816C144.788 123.816 151.508 130.056 151.508 141.288C151.508 152.136 145.172 158.952 136.916 158.952ZM195.255 165.672C208.983 165.672 219.159 156.168 219.159 141.192C219.159 126.216 208.695 117.096 195.351 117.096C182.007 117.096 171.351 126.024 171.351 141.192C171.351 156.264 181.623 165.672 195.255 165.672ZM195.255 158.952C186.711 158.952 179.415 152.136 179.415 141.288C179.415 130.344 186.999 123.816 195.351 123.816C203.607 123.816 211.191 130.344 211.191 141.288C211.191 152.136 203.895 158.952 195.255 158.952Z" fill="white"/>
</svg>
